<?xml version="1.0" encoding="utf-8"?>
<!-- Generator: Adobe Illustrator 16.0.0, SVG Export Plug-In . SVG Version: 6.00 Build 0)  -->
<!DOCTYPE svg PUBLIC "-//W3C//DTD SVG 1.1//EN" "http://www.w3.org/Graphics/SVG/1.1/DTD/svg11.dtd">
<svg version="1.1" id="Capa_1" xmlns="http://www.w3.org/2000/svg" xmlns:xlink="http://www.w3.org/1999/xlink" x="0px" y="0px"
	 width="120px" height="95.5px" viewBox="0 0 120 95.5" enable-background="new 0 0 120 95.5" xml:space="preserve">
<g id="Capa_1_1_" display="none">
	<g display="inline">
		<path fill="#D58026" d="M17.995,69.58c0.245,5.9,2.58,10.674,4.495,13.641c2.897,4.491,7.136,7.066,11.627,7.066h25.917
			c0.956,0,1.729-0.775,1.729-1.729c0-2.545-1.011-4.856-2.646-6.563h6.878v2.685c0,2.799,2.276,5.076,5.075,5.076h5.552h8.292
			c0.955,0,1.729-0.775,1.729-1.729c0-2.637-1.08-5.022-2.822-6.743l3.472-0.349c4.61-0.233,8.013-1.688,10.397-4.447
			c2.15-2.486,3.422-6.034,3.889-10.846c0.214-2.201-1.78-5.088-3.876-5.694c-1.156-0.521-9.312-4.134-19.489-7.546
			c-0.574-4.012-3.766-6.899-7.872-6.899c-2.223,0-4.22,1.321-5.479,3.538c-7.695-2.475-15.69-4.654-22.75-4.654
			c-0.04,0-0.078,0.001-0.119,0.001c-7.94,0.026-13.974,2.86-18.443,8.658C19.618,58.146,17.749,63.707,17.995,69.58 M26.288,55.157
			c3.826-4.966,8.819-7.288,15.717-7.313h0.107c6.567,0,14.201,2.082,21.599,4.457c-0.111,0.639-0.171,1.295-0.171,1.969
			c0,4.914,2.987,8.767,6.801,8.767c0.954,0,1.729-0.774,1.729-1.729s-0.775-1.729-1.729-1.729c-1.812,0-3.343-2.432-3.343-5.309
			c0-0.884,0.146-1.756,0.421-2.528c0.601-1.69,1.747-2.781,2.922-2.781c2.612,0,4.507,1.998,4.507,4.752
			c0,0.874,0.647,1.595,1.49,1.71c11.137,3.682,19.984,7.693,20.073,7.734c0.114,0.052,0.233,0.092,0.356,0.117
			c0.496,0.148,1.409,1.5,1.369,2.033c-0.396,4.074-1.396,6.991-3.063,8.918c-1.743,2.015-4.357,3.08-7.996,3.258
			c-0.029,0.002-0.059,0.004-0.088,0.007l-10.54,1.057l0,0c-0.177,0.019-0.345,0.062-0.502,0.128
			c-0.031,0.014-0.062,0.028-0.091,0.044c-0.021,0.009-0.041,0.019-0.06,0.028c-0.038,0.021-0.071,0.042-0.106,0.064
			c-0.012,0.006-0.025,0.015-0.035,0.022c-0.034,0.021-0.066,0.047-0.098,0.069c-0.014,0.012-0.024,0.021-0.037,0.029
			c-0.027,0.021-0.051,0.047-0.078,0.069c-0.014,0.013-0.029,0.026-0.045,0.042c-0.021,0.02-0.037,0.041-0.058,0.063
			c-0.019,0.021-0.036,0.039-0.058,0.063c-0.012,0.016-0.023,0.033-0.035,0.05c-0.021,0.027-0.042,0.056-0.063,0.083
			c-0.01,0.014-0.016,0.028-0.023,0.042c-0.021,0.033-0.044,0.067-0.063,0.103c-0.007,0.013-0.011,0.025-0.019,0.039
			c-0.021,0.035-0.038,0.072-0.056,0.111c-0.006,0.021-0.015,0.043-0.021,0.062c-0.012,0.032-0.024,0.063-0.035,0.096
			c-0.05,0.163-0.075,0.335-0.075,0.511v0.002c0,0.026,0.002,0.053,0.002,0.08c0.004,0.029,0.004,0.062,0.006,0.094c0,0,0,0,0,0.002
			c0.004,0.025,0.008,0.053,0.013,0.078c0.004,0.029,0.007,0.06,0.013,0.086c0.006,0.028,0.014,0.056,0.021,0.082
			c0.006,0.027,0.012,0.056,0.021,0.082c0.008,0.024,0.016,0.047,0.024,0.07c0.01,0.029,0.019,0.059,0.03,0.086
			c0.009,0.021,0.02,0.041,0.027,0.063c0.014,0.029,0.027,0.06,0.043,0.089c0.01,0.019,0.021,0.036,0.032,0.056
			c0.017,0.027,0.033,0.057,0.052,0.083c0.012,0.021,0.024,0.037,0.036,0.056c0.019,0.025,0.038,0.052,0.06,0.076
			c0.013,0.018,0.027,0.034,0.043,0.051c0.021,0.023,0.041,0.049,0.063,0.068c0.018,0.02,0.034,0.034,0.051,0.051
			c0.021,0.021,0.043,0.041,0.065,0.061c0.019,0.017,0.038,0.031,0.06,0.047c0.021,0.018,0.043,0.035,0.066,0.052
			c0.021,0.015,0.041,0.029,0.064,0.043c0.021,0.017,0.047,0.029,0.07,0.044c0.021,0.014,0.045,0.026,0.068,0.038
			c0.025,0.013,0.05,0.024,0.076,0.036c0.021,0.012,0.045,0.021,0.07,0.031c0.027,0.012,0.057,0.021,0.086,0.031
			c0.021,0.009,0.043,0.016,0.064,0.022c0.035,0.011,0.068,0.019,0.104,0.026c0.02,0.004,0.039,0.01,0.058,0.013
			c0.044,0.009,0.09,0.017,0.136,0.021c0.01,0.002,0.02,0.006,0.029,0.006c0.056,0.006,0.111,0.009,0.172,0.009h0.003h0.528
			c2.727,0,5.035,1.817,5.779,4.302h-6.311H71.07c-0.894,0-1.618-0.726-1.618-1.617V80.27V75.45v-1.862
			c0-0.954-0.772-1.729-1.729-1.729c-0.953,0-1.729,0.773-1.729,1.729v1.862v3.09h-11.2c1.993-2.205,3.086-5.033,3.086-8.026
			c0-3.525-1.067-6.908-3.089-9.781c-1.974-2.81-4.707-4.934-7.905-6.146c-0.893-0.338-1.891,0.112-2.23,1.004
			c-0.338,0.893,0.111,1.891,1.004,2.229c5.24,1.986,8.762,7.089,8.762,12.695c0,2.277-0.887,4.42-2.498,6.03
			c-0.948,0.946-2.12,1.666-3.387,2.077c-0.799,0.261-1.633,0.402-2.479,0.418H46.04c-0.048,0.002-0.098,0.002-0.147,0.002
			c-0.953,0-1.728,0.771-1.728,1.729c0,0.895,0.678,1.629,1.549,1.72c0.121,0.026,0.246,0.042,0.375,0.042h6.181
			c2.725,0,5.034,1.816,5.78,4.302H34.117c-4.512,0-7.401-3.437-8.723-5.483C22.751,77.25,17.545,66.5,26.288,55.157"/>
		<path fill="#D58026" d="M82.734,62.85c0.955,0,1.728,0.774,1.728,1.729v2.55c0,0.956-0.772,1.729-1.728,1.729
			s-1.729-0.772-1.729-1.729v-2.55C81.006,63.624,81.779,62.85,82.734,62.85"/>
		<path fill="#D58026" d="M40.854,53.482c0.198,0,0.396,0.004,0.592,0.01c0.954,0.033,1.702,0.834,1.669,1.788
			c-0.034,0.934-0.8,1.669-1.728,1.669c-0.019,0-0.04,0-0.06-0.001c-0.157-0.007-0.314-0.007-0.473-0.007
			c-0.955,0-1.728-0.774-1.728-1.729C39.126,54.256,39.899,53.482,40.854,53.482"/>
	</g>
</g>
<g id="Capa_3" display="none">
	<path display="inline" fill="#D58026" d="M4.905,60.98c0.34,0.492,0.898,0.779,1.487,0.779c0.072,0,0.145-0.005,0.217-0.014
		c4.615-0.557,7.632-2.48,9.494-6.055c1.636-3.14,2.299-7.336,3.138-12.649c0.564-3.57,2.265-6.113,5.047-7.569
		c-0.357,0.864-0.606,1.785-0.741,2.764c-0.534,3.865,0.78,7.857,1.835,11.066c0.509,1.543,1.27,3.857,1.093,4.53
		c-3.234,3.049-8.848,7.373-8.904,7.417c-0.352,0.271-0.592,0.661-0.674,1.098l-3.775,19.984c-0.111,0.587,0.075,1.191,0.498,1.613
		c0.016,0.017,2.136,2.209,2.136,4.938c0,0.999,0.809,1.81,1.808,1.81h8.438c0.506,0,0.988-0.213,1.331-0.586
		c0.343-0.371,0.514-0.871,0.471-1.375c-0.021-0.246-0.523-5.534-5.391-8.385l4.702-11.699c0.88-0.242,2.307-0.685,4.02-1.383
		l0.423,1.49l-1.619,12.9c-0.053,0.426,0.046,0.855,0.281,1.215c1.758,2.688,1.39,5.742,1.386,5.771
		c-0.066,0.517,0.092,1.041,0.436,1.431c0.344,0.391,0.838,0.618,1.357,0.618h9.021c0.52,0,1.015-0.224,1.358-0.613
		c0.343-0.391,0.502-0.91,0.435-1.426c-0.522-4.045-3.185-6.836-4.69-8.117l2.209-9.471c6.616-2.07,10.598-9.184,12.036-12.23
		c4.84,0.773,9.766,0.559,13.875,0.038l1.729,24.259c0.013,0.165,0.047,0.328,0.103,0.483c0.006,0.013,0.823,2.463-0.593,4.077
		c-0.468,0.535-0.579,1.293-0.286,1.938s0.938,1.062,1.646,1.062h9.939h8.241c0.83,0,1.554-0.563,1.754-1.369
		c0.964-3.852-2.956-7.586-4.644-8.985c-0.1-1.621-0.287-5.542-0.1-9.614c0.334-7.295,1.68-10.56,2.828-11.183
		c6.691-3.632,6.447-10.091,6.213-16.337c-0.018-0.479-0.037-0.963-0.052-1.452c-0.114-3.563,1.47-6.239,2.763-7.814
		c2.018,3.051,1.043,6.407,1.032,6.44c-0.178,0.562-0.069,1.175,0.288,1.643c0.127,0.166,2.807,3.581,7.852,3.582
		c0.742,0,1.533-0.074,2.377-0.242c0.613-0.123,1.119-0.552,1.338-1.137c0.301-0.796,7.285-19.641,2.68-32.767
		c-0.177-0.502-0.563-0.901-1.063-1.091c-0.496-0.19-1.051-0.151-1.518,0.106c-0.056,0.03-1.357,0.753-2.822,1.915
		c-0.199,0.158-0.391,0.316-0.576,0.476v-2.679c0-0.868-0.616-1.614-1.471-1.777c-0.729-0.138-17.98-3.293-28.511,5.598
		c-5.011,4.232-8.864,8.667-11.679,11.906c-1.612,1.856-3.036,3.495-4.118,4.441c-2.222-0.326-4.495-0.917-6.863-1.533
		c-6.185-1.606-13.192-3.43-20.959-0.706c-1.804,0.633-3.359,1.402-4.667,2.307c-7.396-2.441-13.076-2.192-16.89,0.745
		C5.577,35.82,6.36,45.381,6.654,48.98c0.017,0.207,0.031,0.389,0.043,0.543c0.37,5.164-1.885,9.547-1.908,9.592
		C4.479,59.71,4.522,60.428,4.905,60.98 M35.137,68.125l-0.682-2.4c0.856-0.449,1.735-0.949,2.621-1.516
		c3.513-2.242,6.278-4.934,8.253-7.989c1.532,0.771,3.141,1.368,4.788,1.827c-1.542,3.016-5.068,8.668-10.28,9.782
		c-0.685,0.146-1.224,0.675-1.383,1.356l-2.72,11.659c-0.173,0.74,0.136,1.511,0.773,1.927c0.024,0.016,2.39,1.614,3.55,4.307
		h-4.828c-0.091-1.479-0.457-3.557-1.625-5.598l1.586-12.638C35.222,68.604,35.203,68.357,35.137,68.125 M29.021,56.405
		c1.911-1.81,0.933-4.785-0.202-8.232c-0.988-3.002-2.108-6.405-1.688-9.44c0.294-2.132,1.345-3.657,2.669-4.776
		c0.113-0.073,0.218-0.157,0.312-0.253c1.343-1.041,2.915-1.704,4.261-2.176c6.728-2.359,12.892-0.756,18.853,0.794
		c2.648,0.688,5.325,1.384,8.03,1.718c0.016,0.002,0.029,0.007,0.045,0.009c0.395,0.049,0.783,0.085,1.168,0.115
		c0.004,0,0.006,0,0.008,0c0.211,0.017,0.42,0.031,0.627,0.042c0.114,0.007,0.229,0.012,0.345,0.017
		c0.073,0.003,0.147,0.008,0.22,0.009c0.221,0.007,0.441,0.011,0.663,0.011c0.007,0,0.013,0.001,0.021,0.001
		c0.004,0,0.01-0.001,0.015-0.001c1.688,0.002,3.385-0.187,5.094-0.658c3.644-0.995,6.899-3.135,10.052-6.528
		c0.641-0.688,0.987-1.063,1.36-1.419l0.021-0.02c0.284-0.271,0.586-0.535,1.041-0.924c0.475-0.405,0.688-1.003,0.623-1.58
		c-0.006-0.047-0.014-0.093-0.021-0.14c-0.003-0.011-0.003-0.021-0.006-0.032c-0.062-0.285-0.19-0.561-0.395-0.798
		c-0.646-0.76-1.789-0.851-2.549-0.202c-1.213,1.034-1.539,1.375-2.727,2.653c-0.123,0.134-0.246,0.263-0.368,0.39
		c-0.011,0.011-0.021,0.021-0.029,0.03c-0.11,0.115-0.224,0.228-0.333,0.338c-0.029,0.03-0.061,0.059-0.09,0.089
		c-0.09,0.089-0.18,0.178-0.271,0.264c-0.041,0.04-0.082,0.079-0.125,0.118c-0.076,0.073-0.154,0.146-0.23,0.218
		c-0.055,0.05-0.109,0.099-0.165,0.148c-0.062,0.057-0.124,0.113-0.187,0.168c-0.07,0.063-0.144,0.125-0.215,0.187
		c-0.043,0.038-0.087,0.076-0.131,0.113c-0.093,0.079-0.188,0.156-0.279,0.232c-0.021,0.016-0.039,0.032-0.059,0.048
		c-2.861,2.33-5.669,3.351-8.514,3.609c0.617-0.688,1.275-1.446,1.984-2.263c2.889-3.324,6.483-7.463,11.28-11.514
		c7.587-6.406,19.828-5.549,24.03-5.024v3.536c-0.033-0.013-0.07-0.023-0.105-0.035c-0.088-0.029-0.177-0.059-0.269-0.087
		c-0.056-0.018-0.112-0.034-0.168-0.051c-0.076-0.023-0.152-0.046-0.229-0.069c-0.063-0.018-0.125-0.034-0.188-0.052
		c-0.076-0.021-0.153-0.043-0.231-0.063c-0.066-0.018-0.134-0.034-0.201-0.052c-0.08-0.02-0.158-0.039-0.238-0.059
		c-0.07-0.017-0.141-0.033-0.213-0.049c-0.082-0.019-0.166-0.037-0.25-0.055c-0.073-0.016-0.146-0.03-0.221-0.045
		c-0.087-0.018-0.175-0.035-0.264-0.052c-0.075-0.014-0.15-0.027-0.227-0.04c-0.092-0.017-0.187-0.031-0.28-0.047
		c-0.075-0.012-0.149-0.023-0.228-0.034c-0.102-0.016-0.205-0.029-0.311-0.043c-0.072-0.009-0.143-0.019-0.215-0.027
		c-0.125-0.015-0.252-0.027-0.381-0.04c-0.055-0.006-0.107-0.013-0.164-0.018c-0.185-0.017-0.369-0.031-0.56-0.043
		c-0.047-0.003-0.096-0.004-0.143-0.007c-0.146-0.008-0.289-0.015-0.438-0.021c-0.07-0.002-0.146-0.003-0.217-0.005
		c-0.126-0.002-0.252-0.005-0.38-0.006c-0.081,0-0.163,0.002-0.245,0.003c-0.122,0.001-0.246,0.003-0.371,0.006
		c-0.085,0.002-0.171,0.006-0.257,0.01c-0.125,0.005-0.249,0.011-0.376,0.018c-0.088,0.005-0.176,0.012-0.266,0.018
		c-0.127,0.009-0.256,0.021-0.385,0.031c-0.091,0.009-0.181,0.017-0.271,0.026c-0.134,0.014-0.267,0.029-0.4,0.046
		c-0.09,0.012-0.178,0.022-0.269,0.034c-0.141,0.02-0.283,0.041-0.426,0.063c-0.086,0.014-0.17,0.026-0.256,0.041
		c-0.158,0.026-0.317,0.058-0.479,0.088c-0.072,0.015-0.145,0.026-0.217,0.042c-0.219,0.045-0.439,0.093-0.662,0.146
		c-0.016,0.004-0.03,0.007-0.046,0.011c-0.241,0.058-0.486,0.12-0.732,0.188c-0.053,0.015-0.106,0.031-0.159,0.047
		c-0.19,0.054-0.382,0.108-0.574,0.168c-0.082,0.026-0.166,0.055-0.248,0.081c-0.166,0.055-0.332,0.108-0.5,0.167
		c-0.094,0.032-0.188,0.067-0.282,0.102c-0.158,0.058-0.318,0.116-0.479,0.178c-0.101,0.039-0.199,0.08-0.301,0.12
		c-0.156,0.063-0.314,0.128-0.473,0.195c-0.104,0.044-0.208,0.089-0.313,0.135c-0.158,0.069-0.316,0.142-0.477,0.216
		c-0.104,0.049-0.209,0.098-0.313,0.148c-0.164,0.078-0.328,0.16-0.492,0.243c-0.103,0.053-0.205,0.104-0.309,0.158
		c-0.171,0.089-0.344,0.185-0.518,0.279c-0.096,0.053-0.192,0.104-0.289,0.159c-0.195,0.109-0.391,0.226-0.588,0.342
		c-0.076,0.046-0.152,0.089-0.229,0.136c-0.274,0.167-0.551,0.339-0.827,0.521c-0.054,0.034-0.104,0.07-0.15,0.109
		c-0.715,0.575-0.891,1.609-0.379,2.394c0.545,0.837,1.666,1.072,2.502,0.527c7.838-5.108,14.154-3.555,16.752-2.504
		c0.756,0.306,1.197,0.568,1.271,0.612c0.063,0.04,0.132,0.074,0.199,0.104c0.022,0.011,0.045,0.019,0.067,0.028
		c0.047,0.019,0.094,0.036,0.141,0.051c0.027,0.009,0.054,0.016,0.081,0.023c0.046,0.012,0.093,0.022,0.14,0.03
		c0.025,0.005,0.053,0.01,0.078,0.014c0.053,0.008,0.105,0.012,0.16,0.014c0.02,0.001,0.039,0.003,0.059,0.004
		c0.149,0.002,0.299-0.014,0.444-0.049c0.021-0.004,0.039-0.011,0.06-0.017c0.037-0.01,0.073-0.019,0.108-0.03
		c0.017-0.006,0.029-0.013,0.045-0.019c0.024-0.009,0.048-0.021,0.072-0.029c0.048-0.021,0.096-0.043,0.142-0.067
		c0.012-0.006,0.025-0.011,0.037-0.017c0.008-0.005,0.016-0.011,0.021-0.016c0.06-0.033,0.117-0.07,0.172-0.11
		c0.005-0.003,0.009-0.006,0.014-0.01c0.188-0.141,0.346-0.317,0.469-0.521c0.002-0.005,0.006-0.011,0.01-0.016
		c0.033-0.06,0.064-0.121,0.094-0.186c0.004-0.01,0.009-0.02,0.013-0.028c0.009-0.02,0.017-0.037,0.024-0.056
		c0.521-1.39,2.006-2.773,3.328-3.77c2.324,10.103-1.707,23.34-2.952,27.038c-2.604,0.217-4.313-0.89-5.121-1.59
		c0.289-1.737,0.467-5.246-1.813-8.573c-0.799-1.166-1.047-2.377-0.738-3.6c0.224-0.881,0.654-1.455,0.658-1.46
		c0.625-0.779,0.5-1.917-0.279-2.542c-0.78-0.624-1.918-0.499-2.543,0.279c-0.834,1.041-1.842,3.217-1.504,5.763
		c-1.668,1.612-5.08,5.659-4.887,11.637c0.016,0.496,0.033,0.986,0.051,1.472c0.254,6.681,0.177,10.58-4.322,13.022
		c-2.809,1.523-4.352,6.179-4.719,14.229c-0.252,5.521,0.145,10.6,0.162,10.813c0.041,0.522,0.308,1.002,0.729,1.313
		c1.379,1.021,3.15,2.838,3.773,4.36H82.18c-0.063-1.637-0.645-3.59-2.386-5.104l-0.36-10.272c-0.033-0.978-0.836-1.745-1.806-1.745
		c-0.022,0-0.043,0-0.065,0.001c-0.996,0.035-1.777,0.872-1.742,1.87l0.391,11.127c0.02,0.582,0.318,1.117,0.805,1.441
		c1.172,0.78,1.504,1.848,1.555,2.683h-5.447c0.447-1.947,0.033-3.74-0.163-4.411L71.229,58.32c1.631-0.299,3.025-0.613,4.092-0.881
		l0.314,8.966c0.033,0.977,0.836,1.745,1.807,1.745c0.021,0,0.043-0.002,0.063-0.002c0.998-0.035,1.779-0.873,1.744-1.871
		l-0.396-11.248c-0.02-0.564-0.303-1.088-0.763-1.413c-0.462-0.326-1.047-0.418-1.586-0.249c-0.183,0.057-17.79,5.441-29.462-0.336
		c1.087-2.49,1.715-5.174,1.857-8.021c0.05-0.997-0.718-1.847-1.716-1.896c-1.004-0.055-1.847,0.719-1.896,1.716
		c-0.145,2.895-0.858,5.559-2.129,7.98c-0.012,0.017-0.022,0.03-0.033,0.047c-0.043,0.072-0.078,0.146-0.111,0.221
		c-1.685,3.083-4.286,5.768-7.796,8.025c-4.89,3.145-9.778,4.244-9.828,4.254c-0.583,0.129-1.068,0.539-1.291,1.094l-5.673,14.111
		c-0.18,0.447-0.174,0.948,0.019,1.393c0.191,0.443,0.552,0.791,1.002,0.967c2.435,0.951,3.632,2.754,4.215,4.156h-4.475
		c-0.445-2.225-1.607-3.983-2.353-4.93l3.486-18.455C21.857,62.497,26.229,59.047,29.021,56.405 M9.318,57.396
		c0.635-2.095,1.212-4.977,0.986-8.131c-0.011-0.164-0.027-0.358-0.045-0.58c-0.128-1.558-0.365-4.457,0.049-7.407
		c0.473-3.375,1.656-5.813,3.517-7.247c1.936-1.491,4.702-1.983,8.258-1.475c-2.611,1.521-5.546,4.427-6.414,9.922
		C14.243,51.507,13.348,55.719,9.318,57.396"/>
</g>
<g id="Capa_2" display="none">
	<path display="inline" fill="#D58026" d="M83.801,46.776c1.1,0,1.993,0.895,1.993,1.994c0,1.1-0.896,1.994-1.993,1.994
		s-1.994-0.896-1.994-1.994S82.702,46.776,83.801,46.776"/>
	<path display="inline" fill="#D58026" d="M26.963,44.843c3.601-4.211,8.844-6.626,14.384-6.626c1,0,1.812,0.812,1.812,1.813
		c0,1-0.812,1.812-1.812,1.812c-4.479,0-8.718,1.953-11.63,5.357c-0.358,0.419-0.867,0.634-1.378,0.634
		c-0.417,0-0.836-0.143-1.177-0.435C26.401,46.747,26.313,45.604,26.963,44.843"/>
	<path display="inline" fill="#D58026" d="M24.01,49.553c0.113-0.238,0.273-0.443,0.464-0.604c0.512-0.439,1.237-0.569,1.899-0.28
		c0.136,0.059,0.264,0.137,0.383,0.229c0.183,0.143,0.334,0.315,0.449,0.51c0.165,0.275,0.261,0.599,0.254,0.945
		c-0.002,0.239-0.053,0.481-0.156,0.715c-0.002,0.004-0.004,0.009-0.005,0.014c-0.104,0.24-0.254,0.447-0.436,0.613
		c-0.35,0.326-0.795,0.479-1.23,0.479c-0.258,0-0.512-0.054-0.741-0.155c-0.91-0.408-1.314-1.485-0.911-2.397
		C23.989,49.596,23.999,49.574,24.01,49.553"/>
	<path display="inline" fill="#D58026" d="M19.989,38.952c-3.229,3.72-5.186,8.569-5.186,13.868c0,4.246,1.253,8.347,3.625,11.853
		c0.017,0.022,0.032,0.046,0.05,0.068l1.066,1.43c0.019,0.024,0.038,0.049,0.058,0.073c2.936,3.539,5.258,17.623,5.905,22.752
		c0.114,0.904,0.885,1.585,1.797,1.585h17.298c0.608,0,1.176-0.306,1.512-0.813c0.336-0.507,0.394-1.148,0.155-1.709
		c-0.548-1.285-1.518-3.343-2.572-4.572V76.99c2.636,0.496,5.478,0.628,8.927,0.628c2.62,0,5.214-0.232,7.714-0.685
		c3.536,5.428,3.729,11.811,3.729,11.879c0.023,0.983,0.828,1.77,1.813,1.77h16.473c0.609,0,1.178-0.307,1.512-0.813
		c0.337-0.509,0.396-1.15,0.156-1.711c-0.57-1.339-1.599-3.516-2.705-4.72l-1.158-6.661l0.539-5.408l2.063-0.146
		c1.528-0.107,2.665-0.404,4.11-0.877l16.872-5.527c0.875-0.123,2.157-0.742,3.003-3.111c0.513-1.438,0.795-3.313,0.795-5.277
		c0-1.967-0.282-3.842-0.795-5.279c-0.796-2.229-1.979-2.909-2.846-3.084l-1.168-0.569c-3.67-1.789-6.918-4.449-9.395-7.693
		l-3.869-5.07c0.864-0.449,1.889-0.734,3.1-0.734c0.031,0,0.063,0,0.093,0c0.598,0.008,1.151-0.276,1.495-0.759
		c0.346-0.482,0.433-1.103,0.232-1.661c-1.256-3.524-4.041-5.642-7.643-5.811c-2.625-0.123-5.301,0.788-7.587,2.439
		c-1.06,0.548-8.164,4.039-16.382,3.522c-0.037-0.003-0.074-0.004-0.112-0.004H36.025c-4.657,0-8.968,1.507-12.471,4.057
		c-1.528,0.296-3.091-0.179-4.191-1.278c-0.636-0.635-0.985-1.479-0.985-2.377s0.35-1.742,0.985-2.378
		c0.911-0.909,2.393-0.909,3.304,0c0.606,0.606,0.646,1.313,0.113,1.942c-0.059,0.024-0.146,0.037-0.232,0.038
		c0.075-0.894-0.522-1.726-1.422-1.921c-0.979-0.211-1.943,0.409-2.155,1.388c-0.344,1.586,0.31,3.015,1.707,3.726
		c1.572,0.801,3.667,0.461,4.77-0.774c1.844-2.066,1.751-4.995-0.22-6.963c-2.322-2.319-6.103-2.319-8.425,0
		c-1.322,1.32-2.05,3.075-2.05,4.942c0,1.867,0.728,3.622,2.05,4.941C17.716,37.882,18.809,38.55,19.989,38.952 M103.369,52.387
		c0.275,0.822,0.544,2.139,0.544,3.942s-0.269,3.119-0.544,3.942c-0.275-0.823-0.543-2.139-0.543-3.942
		S103.094,53.209,103.369,52.387 M64.063,76.077c1.045-0.295,2.064-0.632,3.057-1.007c1.639,4.174,2.423,9.188,2.752,11.887h-2.322
		C67.27,84.598,66.45,80.244,64.063,76.077 M41.69,86.957h-3.102c-0.52-1.105-1.205-2.391-1.939-3.303l1.533-8.381
		c0.632,0.281,1.261,0.531,1.89,0.752v8.226c0,0.604,0.302,1.168,0.803,1.504C41.057,85.92,41.354,86.368,41.69,86.957
		 M18.428,52.82c0-9.688,7.895-17.569,17.598-17.569h26.58c0.629,0.038,1.254,0.057,1.865,0.057c3.748,0,7.174-0.67,9.926-1.469
		c-0.017,0.034-0.035,0.069-0.051,0.104c-0.423,0.907-0.029,1.984,0.879,2.407c0.906,0.423,1.983,0.029,2.406-0.878
		c0.864-1.856,2.119-3.298,3.506-4.321c0.063-0.039,0.122-0.082,0.178-0.127c1.735-1.228,3.656-1.81,5.261-1.736
		c0.987,0.047,2.19,0.352,3.168,1.353c-2.382,0.647-4.412,2.147-5.968,4.434c-1.561,2.292-2.084,4.602-2.106,4.7
		c-0.215,0.977,0.399,1.944,1.378,2.161c0.133,0.029,0.264,0.043,0.395,0.043c0.828,0,1.576-0.572,1.766-1.413
		c0.033-0.139,0.439-1.833,1.574-3.479l3.675,4.816c2.634,3.451,6.036,6.32,9.879,8.343c-0.118,0.243-0.229,0.51-0.336,0.806
		c-0.513,1.438-0.795,3.313-0.795,5.278s0.282,3.84,0.795,5.277c0.058,0.164,0.118,0.317,0.181,0.466l-14.438,4.729
		c-1.231,0.403-2.07,0.623-3.239,0.706l-3.585,0.254c-0.88,0.063-1.588,0.75-1.675,1.629l-0.718,7.174
		c-0.016,0.164-0.01,0.328,0.02,0.49l1.307,7.508c0.084,0.487,0.364,0.918,0.774,1.193c0.187,0.167,0.483,0.612,0.817,1.201h-3.452
		h-2.466c-0.43-3.784-1.832-12.98-5.666-18.146c-0.596-0.804-1.731-0.972-2.534-0.375c-0.804,0.598-0.972,1.731-0.376,2.535
		c0.195,0.264,0.385,0.543,0.566,0.834c-3.918,1.434-8.354,2.188-12.891,2.188c-5.896,0-9.641-0.379-13.767-2.406l0.338-1.845
		c0.18-0.984-0.472-1.93-1.457-2.109c-0.984-0.18-1.928,0.473-2.108,1.457l-2.714,14.834c-0.131,0.712,0.175,1.432,0.771,1.831
		c0.187,0.168,0.483,0.613,0.818,1.202h-0.012H28.89c-0.695-4.91-2.907-18.632-6.466-22.988l-1.016-1.361
		C19.459,59.711,18.428,56.328,18.428,52.82"/>
</g>
<g id="Capa_4" display="none">
	<path display="inline" fill="#D58026" d="M20.905,35.41l5.768,22.313c2.903,11.229,11.78,19.656,22.696,22.237v4.845l-3.74,3.111
		c-0.641,0.534-0.729,1.488-0.194,2.13c0.3,0.359,0.729,0.545,1.164,0.545c0.34,0,0.683-0.114,0.967-0.35l3.317-2.761l3.317,2.761
		c0.282,0.235,0.625,0.35,0.967,0.35c0.434,0,0.864-0.186,1.163-0.545c0.534-0.642,0.446-1.596-0.196-2.13l-3.739-3.111v-4.289
		c1.333,0.178,2.688,0.271,4.062,0.271h0.606c1.676,0,3.331-0.151,4.949-0.447v4.468l-3.741,3.11
		c-0.642,0.534-0.729,1.488-0.196,2.13c0.299,0.359,0.73,0.545,1.164,0.545c0.34,0,0.683-0.113,0.966-0.35l3.318-2.762l3.316,2.762
		c0.282,0.234,0.627,0.35,0.967,0.35c0.435,0,0.864-0.186,1.164-0.545c0.534-0.642,0.446-1.596-0.195-2.13l-3.739-3.11V79.93
		c0-0.106-0.013-0.214-0.034-0.315c2.926-0.888,5.691-2.273,8.211-4.125c4.715-3.468,8.128-8.249,9.874-13.834l4.493-14.378
		c1.29-4.131,4.25-7.608,8.12-9.543l1.68-0.84c0.396-0.197,0.685-0.557,0.79-0.986c0.107-0.429,0.021-0.882-0.232-1.242l-4.67-6.573
		c-0.273-0.386-0.567-0.754-0.877-1.107c0.764-0.993,1.287-2.164,1.508-3.409c0.75-4.247-2.096-8.312-6.342-9.062
		c-1.521-0.27-3.074-0.078-4.479,0.535c-1.088-0.908-2.383-1.51-3.801-1.76c-4.319-0.764-8.461,2.026-9.418,6.262
		c-2.014,0.987-3.459,2.878-3.854,5.124c-0.497,2.811,0.767,5.613,3.076,7.138l-1.819,3.18c-3.582,6.263-10.925,7.127-18.327,7.127
		c-4.667,0-12.495-3.83-22.04-10.781c-1.33-0.968-3.066-0.996-4.425-0.071C21.107,32.189,20.494,33.816,20.905,35.41 M90.916,23.047
		c-0.122,0.69-0.383,1.326-0.77,1.885c-2.332-1.707-5.174-2.672-8.129-2.691c-4.591-0.021-8.855,2.432-11.135,6.415l-0.298,0.52
		c-1.224-0.892-1.878-2.433-1.604-3.978c0.258-1.466,1.299-2.669,2.715-3.139c0.56-0.187,0.961-0.683,1.023-1.27l0.01-0.093
		c0.012-0.094,0.021-0.177,0.03-0.241c0.24-1.359,0.995-2.543,2.128-3.336c1.131-0.791,2.502-1.095,3.862-0.855
		c1.144,0.202,2.16,0.768,2.94,1.639c0.494,0.549,1.313,0.663,1.937,0.266c1.017-0.646,2.224-0.887,3.399-0.68
		C89.631,17.95,91.376,20.443,90.916,23.047 M24.167,33.766c0.144-0.098,0.523-0.291,0.944,0.015
		c7.116,5.182,17.026,11.36,23.821,11.36c7.914,0,16.591-1.027,20.952-8.649l3.625-6.333c1.729-3.022,4.956-4.892,8.435-4.892H82
		c3.488,0.02,6.777,1.731,8.799,4.576l3.646,5.132l-0.102,0.051c-4.602,2.301-8.119,6.436-9.654,11.346L80.195,60.75
		c-3.178,10.175-12.475,17.009-23.134,17.009h-0.606c-12.646,0-23.689-8.551-26.854-20.795l-5.768-22.312
		C23.702,34.146,24.023,33.863,24.167,33.766"/>
	<path display="inline" fill="#D58026" d="M81.766,31.452c0.918,0,1.664,0.748,1.664,1.667s-0.746,1.667-1.664,1.667
		c-0.92,0-1.668-0.748-1.668-1.667S80.846,31.452,81.766,31.452"/>
	<path display="inline" fill="#D58026" d="M29.736,44.413c0.041,0.252,1.012,6.278,4.315,12.39c4.49,8.309,11.123,12.7,19.183,12.7
		c6.378,0,11.497-1.7,15.209-5.053c2.834-2.556,4.797-6.009,5.834-10.263c0.588-2.41-0.148-4.854-1.971-6.538
		c-1.818-1.681-4.311-2.224-6.664-1.45l-3.095,1.018c-6.498,2.136-13.603,1.989-20.005-0.412L31.76,42.763
		c-0.503-0.189-1.07-0.097-1.485,0.243C29.858,43.346,29.653,43.88,29.736,44.413 M53.235,66.479c-4.333,0-8.119-1.442-11.322-4.302
		c1.92,0.664,3.892,1.101,5.875,1.284c0.047,0.004,0.096,0.006,0.143,0.006c0.771,0,1.431-0.588,1.504-1.371
		c0.077-0.832-0.535-1.568-1.366-1.646c-3.709-0.347-7.393-1.687-10.667-3.875c-0.236-0.394-0.466-0.794-0.69-1.21
		c-0.918-1.702-1.645-3.407-2.211-4.963c2.309,1.832,4.693,3.296,7.118,4.371c3.371,1.494,6.844,2.246,10.354,2.246
		c0.938,0,1.879-0.054,2.821-0.162c0.831-0.094,1.426-0.844,1.332-1.672c-0.096-0.83-0.845-1.427-1.675-1.332
		c-6.509,0.742-12.816-1.41-18.781-6.396l5.812,2.18c7.045,2.644,14.864,2.803,22.012,0.454l3.095-1.017
		c0.39-0.127,0.783-0.19,1.173-0.19c0.912,0,1.795,0.341,2.495,0.988c1.002,0.928,1.407,2.272,1.083,3.601
		C69.234,62.104,63.145,66.479,53.235,66.479"/>
	<path display="inline" fill="#D58026" d="M58.696,52.967l0.056-0.018c0.8-0.245,1.645,0.203,1.891,1.003
		c0.244,0.798-0.206,1.644-1.003,1.889l-0.065,0.021c-0.147,0.043-0.294,0.064-0.439,0.064c-0.648,0-1.249-0.421-1.447-1.074
		C57.445,54.052,57.897,53.208,58.696,52.967"/>
	<path display="inline" fill="#D58026" d="M52.308,60.404l0.133-0.016c0.831-0.104,1.584,0.488,1.686,1.316
		c0.102,0.83-0.488,1.584-1.316,1.686l-0.151,0.021c-0.06,0.006-0.119,0.01-0.177,0.01c-0.757,0-1.411-0.567-1.501-1.338
		C50.885,61.253,51.478,60.502,52.308,60.404"/>
</g>
<g id="Capa_5">
	<path fill="#774CBE" d="M16.949,73.758c0,3.93,3.198,7.127,7.13,7.127c0.707,0,1.406-0.109,2.075-0.313
		c0.796,1.242,1.73,2.406,2.799,3.476c3.899,3.897,9.08,6.043,14.589,6.043l46.94-0.001c3.221,0,5.838-2.62,5.838-5.839
		s-2.617-5.838-5.838-5.838h-3.64c1.341-2.776,2.04-5.825,2.04-8.954c0-2.633-0.48-5.174-1.436-7.576
		c3.85-1.665,6.566-5.552,6.566-9.726c0-0.98-0.154-1.946-0.461-2.872c-2.889-8.735-10.386-14.687-19.556-15.793
		c-0.403-2.16-1.034-4.452-1.851-6.703c-2.967-8.18-8.315-15.607-12.807-13.982c-2.108,0.766-3.22,3.202-3.246,6.978
		c-0.485-0.275-0.966-0.528-1.437-0.751c-4.545-2.164-6.843-1.272-7.97-0.148c-1.125,1.127-2.014,3.423,0.15,7.968
		c1.444,3.036,3.962,6.43,7.087,9.556c2.049,2.047,4.22,3.842,6.347,5.249c-0.175,0.736-0.263,1.482-0.263,2.224
		c0,0.981,0.154,1.948,0.46,2.873c0.233,0.707,0.501,1.398,0.794,2.071h-17.72c-10.439,0-19.092,7.795-20.445,17.87
		C19.629,67.176,16.949,70.158,16.949,73.758 M70.618,33.302c-0.046,0-0.448,0.011-0.606,0.021
		c-1.474-2.393-3.457-4.862-5.796-7.201c-1.536-1.534-3.135-2.921-4.725-4.108c-0.423-4.186,0.449-5.935,0.972-6.123
		c1.123-0.407,5.402,3.19,8.604,12.017C69.723,29.718,70.248,31.553,70.618,33.302 M26.191,69.458
		c0-9.567,7.783-17.353,17.351-17.353h20.397c0.283,0,0.569-0.072,0.83-0.226c0.779-0.46,1.041-1.465,0.582-2.246
		c-0.715-1.215-1.31-2.527-1.765-3.909c-0.196-0.593-0.296-1.214-0.296-1.845c0-0.784,0.15-1.576,0.447-2.356
		c0.072-0.192,0.105-0.389,0.105-0.582c0-0.661-0.4-1.285-1.056-1.535l0.015-0.024c-2.162-1.337-4.425-3.164-6.557-5.296
		c-2.868-2.867-5.156-5.938-6.445-8.644c-1.191-2.5-1.125-3.905-0.791-4.239c0.333-0.336,1.738-0.4,4.239,0.791
		c1.171,0.557,2.414,1.304,3.676,2.204c0.031,0.025,0.064,0.048,0.099,0.071c1.621,1.164,3.276,2.577,4.871,4.171
		c2.404,2.406,4.472,5.049,5.818,7.44l0.002-0.001c0.331,0.589,1.01,0.936,1.717,0.812c0.365-0.066,1.324-0.108,1.441-0.108
		c4.501,0,8.717,1.291,12.191,3.73c3.465,2.437,6.014,5.894,7.373,10c0.195,0.592,0.295,1.213,0.295,1.843
		c0,1.636-0.646,3.237-1.705,4.522c-1.059,1.284-2.527,2.25-4.176,2.616c-0.131,0.03-0.262,0.074-0.387,0.136
		c-0.808,0.41-1.133,1.397-0.723,2.205c1.232,2.438,1.857,5.07,1.857,7.822c0,3.468-1.018,6.814-2.947,9.678
		c-0.504,0.75-0.307,1.771,0.445,2.276c0.28,0.188,0.6,0.28,0.914,0.28h6.469c1.41,0,2.558,1.146,2.558,2.558
		s-1.147,2.56-2.558,2.56H66.816c0.381-0.772,0.594-1.642,0.594-2.56c0-3.219-2.619-5.838-5.84-5.838h-5.782v-1.14
		c0-6.387-5.196-11.58-11.582-11.58h-2.168c-0.905,0-1.641,0.731-1.641,1.64c0,0.905,0.735,1.642,1.641,1.642h2.168
		c4.577,0,8.3,3.723,8.3,8.301v2.777c0,0.905,0.735,1.641,1.641,1.641h7.423c1.412,0,2.56,1.147,2.56,2.559s-1.147,2.559-2.56,2.559
		v0.002H43.542c-4.634,0-8.991-1.805-12.269-5.082c-1.172-1.174-2.157-2.487-2.938-3.9C28.311,77.773,26.191,73.518,26.191,69.458
		 M20.229,73.758c0-1.722,1.134-3.18,2.691-3.674c0.079,2.614,0.64,5.146,1.643,7.49c-0.16,0.02-0.322,0.031-0.485,0.031
		C21.956,77.605,20.229,75.88,20.229,73.758"/>
	<path fill="#774CBE" d="M80.462,44.309c-1.099,0-1.987,0.891-1.987,1.988c0,1.098,0.889,1.989,1.987,1.989s1.987-0.891,1.987-1.989
		C82.449,45.2,81.561,44.309,80.462,44.309"/>
	<path fill="#774CBE" d="M43.543,54.566c0.905,0,1.64,0.733,1.64,1.641c0,0.904-0.734,1.641-1.64,1.641
		c-6.402,0-11.61,5.209-11.61,11.609c0,0.906-0.735,1.641-1.641,1.641c-0.906,0-1.64-0.733-1.64-1.641
		C28.652,61.247,35.332,54.566,43.543,54.566"/>
</g>
<g id="Capa_6" display="none">
	<g display="inline">
		<path fill="#D58026" d="M94.057,27.057l-12.063-5.951c-1.13-2.317-3.235-4.305-5.99-5.638c-2.922-1.413-6.329-1.964-9.599-1.553
			c-3.913,0.494-7.427,2.312-10.163,5.259c-3.152,3.394-5.185,8.142-6.044,14.11c-0.073,0.507-0.152,1.018-0.233,1.528
			c-3.242,2.039-6.137,5.563-7.699,11.067c-2.858,10.075-8.353,12.667-11.991,14.385c-1.367,0.645-2.548,1.202-3.374,2.021
			c-0.704,0.696-0.924,1.62-0.589,2.465c0.454,1.147,1.826,1.978,4.318,2.606c1.577,0.397,3.539,0.685,5.652,0.828
			c-0.528,0.832-1.019,1.537-1.485,2.188L27.44,80.643c-0.002,0.002-0.003,0.004-0.006,0.008l-3.324,4.641
			c-0.271,0.381-0.348,0.863-0.208,1.309c0.139,0.442,0.481,0.797,0.92,0.951c3.892,1.366,8.002,2.039,12.046,2.038
			c5.807,0,11.473-1.388,16.132-4.099c4.963-2.889,8.273-7.037,9.414-11.758c2.451-0.793,4.77-1.808,6.863-3.021
			c3.719-2.151,6.668-4.854,8.769-8.028c2.341-3.533,3.562-7.566,3.631-11.992c0.091-5.763,0.574-11.522,0.976-15.993l11.346-4.959
			c0.525-0.23,0.872-0.747,0.887-1.323C94.896,27.842,94.573,27.312,94.057,27.057 M29.615,63.918
			c0.505-0.309,1.181-0.627,1.923-0.977c3.87-1.826,10.349-4.883,13.575-16.253c2.345-8.263,8.091-11.207,12.687-11.207
			c3.032,0,5.905,1.212,7.882,3.326c2.035,2.175,2.998,5.109,2.785,8.488c-0.919,6.282-4.556,11.061-10.81,14.203
			c-6.645,3.337-14.207,3.835-18.123,3.835l0,0c-0.233,0-0.466-0.002-0.699-0.005h-0.001c-0.206-0.003-0.412-0.008-0.615-0.014
			C33.793,65.191,30.862,64.479,29.615,63.918 M36.462,73.128c2.276,1.073,4.928,1.83,7.815,2.242
			c-2.341,3.512-7.695,5.604-13.065,5.086L36.462,73.128z M51.509,82.932c-6.657,3.877-15.617,4.756-23.808,2.43l1.569-2.19
			c1.2,0.224,2.408,0.33,3.599,0.33c6.396,0,12.357-3.067,14.625-7.813c0.694,0.035,1.396,0.056,2.109,0.056
			c0.651,0,1.312-0.015,1.976-0.046c2.521-0.121,5.026-0.471,7.444-1.026C57.762,77.93,55.164,80.805,51.509,82.932 M67.794,68.15
			c-2.146,1.242-4.517,2.24-6.987,2.99c-0.063,0.016-0.125,0.036-0.186,0.058c-4.458,1.329-9.241,1.849-13.668,1.52
			c-0.196-0.058-0.396-0.073-0.588-0.052c-2.971-0.273-5.767-0.932-8.171-1.996c0.463-0.691,0.956-1.469,1.483-2.376
			c4.219-0.013,12.2-0.579,19.31-4.149c3.324-1.67,6.042-3.803,8.088-6.34c2.321-2.883,3.778-6.295,4.331-10.145
			c0.005-0.037,0.009-0.074,0.012-0.112c0.283-4.24-0.953-7.962-3.574-10.762c-2.535-2.71-6.195-4.264-10.043-4.264
			c-1.475,0-3.043,0.238-4.606,0.761c1.492-9.547,6.424-15.528,13.581-16.43c5.471-0.688,11.059,1.91,12.726,5.917
			c0.524,1.263,0.79,2.588,0.79,3.938c0,1.243-0.208,3.542-0.473,6.45c-0.012,0.134-0.024,0.271-0.036,0.409
			c0,0.002,0,0.004,0,0.007c-0.419,4.623-0.968,10.825-1.066,17.076C78.566,59.975,72.693,65.313,67.794,68.15 M82.952,31.335
			c0.178-1.998,0.298-3.591,0.298-4.629c0-0.583-0.043-1.163-0.118-1.738l6.761,3.335L82.952,31.335z"/>
		<path fill="#D58026" d="M51.539,61.456c0.14,0,0.281-0.021,0.421-0.063l0.038-0.011c0.783-0.235,1.226-1.062,0.989-1.845
			c-0.235-0.783-1.062-1.227-1.844-0.989c-0.002,0-0.016,0.004-0.019,0.004l-0.008,0.005c-0.783,0.233-1.229,1.058-0.995,1.84
			C50.313,61.04,50.901,61.456,51.539,61.456"/>
		<path fill="#D58026" d="M55.914,59.729c0.224,0,0.451-0.049,0.664-0.158c5.484-2.76,8.829-7.059,9.667-12.428
			c0.127-0.808-0.425-1.565-1.231-1.691c-0.81-0.126-1.566,0.426-1.691,1.233c-0.697,4.45-3.413,7.896-8.074,10.242
			c-0.73,0.368-1.024,1.258-0.656,1.989C54.85,59.432,55.373,59.729,55.914,59.729"/>
		<path fill="#D58026" d="M69.482,22.173c-2.469-0.181-4.691,1.07-5.529,3.114c-0.313,0.756,0.049,1.621,0.806,1.931
			c0.757,0.313,1.621-0.051,1.933-0.807c0.404-0.983,1.617-1.354,2.576-1.284c0.484,0.035,1.642,0.241,1.926,1.388
			c0.166,0.673,0.771,1.124,1.437,1.124c0.118,0,0.237-0.015,0.356-0.043c0.795-0.198,1.277-1.001,1.08-1.794
			C73.555,23.733,71.797,22.344,69.482,22.173"/>
	</g>
</g>
</svg>
